<svg height="40.79" viewBox="0 0 40.02 40.79" width="40.02" xmlns="http://www.w3.org/2000/svg"><g fill="#a7624f"><path d="m30.75 7.13a2.35 2.35 0 1 0 2.32 2.37 2.3 2.3 0 0 0 -2.32-2.37z"/><path d="m39.57 9.56a9.67 9.67 0 0 0 -9.31-9.12c-6.75-.32-13.54-.34-20.26-.01a9.43 9.43 0 0 0 -9.41 8.66c-.45 4.14-.48 17.7-.31 20.91.3 5.61 4.08 10 9.44 10.33a205.33 205.33 0 0 0 20.61 0 9.7 9.7 0 0 0 9.23-9.06 215.75 215.75 0 0 0 .01-21.71zm-3.52 21c-.23 4-3.06 6.14-7.08 6.31-2.95.12-5.91 0-8.86 0s-6 .11-9 0c-4.31-.2-7.09-2.79-7.24-7.11-.21-6.11-.24-12.24 0-18.35.14-4.68 2.38-7.24 7-7.5a168.08 168.08 0 0 1 18.51 0c4.34.24 6.64 2.42 6.86 6.71a184.22 184.22 0 0 1 -.19 19.93z"/><path d="m20.27 10a10.21 10.21 0 0 0 -10.45 10.14 10.24 10.24 0 1 0 10.45-10.14zm-.27 17.18a6.81 6.81 0 0 1 .1-13.61 6.81 6.81 0 0 1 -.1 13.61z"/></g></svg>